<svg xmlns="http://www.w3.org/2000/svg" version="1.1" xmlns:xlink="http://www.w3.org/1999/xlink" xmlns:svgjs="http://svgjs.dev/svgjs" width="1000" height="623" viewBox="0 0 1000 623"><g transform="matrix(1,0,0,1,-0.6060606060606233,67.9762273749642)"><svg viewBox="0 0 396 247" data-background-color="#ffffff" preserveAspectRatio="xMidYMid meet" height="623" width="1000" xmlns="http://www.w3.org/2000/svg" xmlns:xlink="http://www.w3.org/1999/xlink"><g id="tight-bounds" transform="matrix(1,0,0,1,0.2400000000000091,-0.09999999999999432)"><svg viewBox="0 0 395.52 247.2" height="247.2" width="395.52"><g><svg></svg></g><g><svg viewBox="0 0 395.52 247.2" height="247.2" width="395.52"><g transform="matrix(1,0,0,1,75.54432,101.5277432858369)"><svg viewBox="0 0 244.43135999999998 44.14451342832618" height="44.14451342832618" width="244.43135999999998"><g><svg viewBox="0 0 244.43135999999998 44.14451342832618" height="44.14451342832618" width="244.43135999999998"><g><svg viewBox="0 0 244.43135999999998 44.14451342832618" height="44.14451342832618" width="244.43135999999998"><g><svg viewBox="0 0 244.43135999999998 44.14451342832618" height="44.14451342832618" width="244.43135999999998"><g id="textblocktransform"><svg viewBox="0 0 244.43135999999998 44.14451342832618" height="44.14451342832618" width="244.43135999999998" id="textblock"><g><svg viewBox="0 0 244.43135999999998 44.14451342832618" height="44.14451342832618" width="244.43135999999998"><g transform="matrix(1,0,0,1,0,0)"><svg width="244.43135999999998" viewBox="4.199999809265137 -39.20000076293945 291.22998046875 52.599998474121094" height="44.14451342832618" data-palette-color="#ffffff"><path d="M16.85-6.4L16.85-6.4 24.9-6.4Q28.45-6.4 31.2-8.4L31.2-8.4Q32.8-7.05 32.8-4.85 32.8-2.65 31.2-1.33 29.6 0 26.4 0L26.4 0 15.55 0Q10.55 0 8.22-2.15 5.9-4.3 5.9-8.95L5.9-8.95 5.9-31.15Q5.9-33.7 4.2-34.6L4.2-34.6Q6.05-36.8 8.75-36.8L8.75-36.8 25.45-36.8Q29.4-36.8 31.1-35.77 32.8-34.75 32.8-32.75 32.8-30.75 31.2-29.4L31.2-29.4Q28.8-30.35 24.9-30.35L24.9-30.35 13.75-30.35 13.75-22.85 20.65-22.85Q24.65-22.85 26.33-22 28-21.15 28-19.13 28-17.1 26.4-15.85L26.4-15.85Q24.6-16.45 20.1-16.45L20.1-16.45 13.75-16.45 13.75-9.95Q13.75-6.4 16.85-6.4ZM47.55-33.25L47.55-33.25 47.55-5.15Q47.55-2.45 49.2-1.6L49.2-1.6Q47.3 0.55 44.6 0.55L44.6 0.55Q39.7 0.55 39.7-5.4L39.7-5.4 39.7-33.55Q39.7-36.05 38-37.1L38-37.1Q39.9-39.2 42.6-39.2L42.6-39.2Q47.55-39.2 47.55-33.25ZM66-22.9L66-22.9Q61.7-22.9 61.7-15.4L61.7-15.4Q61.7-14.3 61.8-13.1L61.8-13.1Q62.4-3.25 67.3-3.25L67.3-3.25Q71.6-3.25 71.6-10.8L71.6-10.8Q71.6-11.85 71.5-13.1L71.5-13.1Q70.8-22.9 66-22.9ZM57.35-23.18Q60.9-26.7 66.65-26.7 72.4-26.7 75.95-23.18 79.5-19.65 79.5-13.1 79.5-6.55 75.92-3 72.35 0.55 66.62 0.55 60.9 0.55 57.35-3 53.8-6.55 53.8-13.1 53.8-19.65 57.35-23.18ZM100.49-6.75L100.49-18.7Q100.49-20.5 99.37-21.45 98.24-22.4 96.89-22.4L96.89-22.4Q94.59-22.4 93.04-19.93 91.49-17.45 91.49-13.1 91.49-8.75 92.79-6.58 94.09-4.4 96.24-4.4L96.24-4.4Q99.04-4.4 100.49-6.75L100.49-6.75ZM106.39-26.7L108.34-26.7 108.34 7.7Q108.34 10.35 109.99 11.2L109.99 11.2Q108.14 13.4 105.39 13.4L105.39 13.4Q100.49 13.4 100.49 7.45L100.49 7.45 100.49-1.85Q97.99 0.55 94.54 0.55L94.54 0.55Q89.99 0.55 86.69-2.95 83.39-6.45 83.39-12.2L83.39-12.2Q83.39-15.95 84.84-19.18 86.29-22.4 89.37-24.55 92.44-26.7 96.54-26.7L96.54-26.7Q99.39-26.7 101.74-24.85L101.74-24.85Q103.14-26.7 106.39-26.7L106.39-26.7ZM139.14-20.75L139.14-20.75 139.14-5.15Q139.14-2.45 140.74-1.6L140.74-1.6Q138.94 0.55 136.19 0.55L136.19 0.55Q132.14 0.55 131.44-3.5L131.44-3.5Q128.89 0.55 124.37 0.55 119.84 0.55 117.34-1.75 114.84-4.05 114.84-8.45L114.84-8.45 114.84-21.05Q114.84-23.65 113.14-24.55L113.14-24.55Q115.04-26.7 117.67-26.7 120.29-26.7 121.49-25.25 122.69-23.8 122.69-20.75L122.69-20.75 122.69-9.25Q122.69-5.4 126.59-5.4L126.59-5.4Q129.94-5.4 131.29-9.2L131.29-9.2 131.29-21.05Q131.29-23.65 129.59-24.55L129.59-24.55Q131.49-26.7 134.12-26.7 136.74-26.7 137.94-25.25 139.14-23.8 139.14-20.75ZM158.34-16.55Q159.24-16.65 159.69-17.13 160.14-17.6 160.14-18.95 160.14-20.3 159.36-21.43 158.59-22.55 157.24-22.55 155.89-22.55 154.69-20.85 153.49-19.15 153.09-15.9L153.09-15.9 158.34-16.55ZM159.19-4.9L159.19-4.9Q163.34-4.9 166.14-8.05L166.14-8.05Q167.29-7.55 167.29-5.95L167.29-5.95Q167.29-3.55 164.44-1.5 161.59 0.55 157.74 0.55L157.74 0.55Q151.79 0.55 148.46-2.7 145.14-5.95 145.14-12.03 145.14-18.1 148.79-22.4 152.44-26.7 158.04-26.7L158.04-26.7Q162.34-26.7 165.14-23.93 167.94-21.15 167.94-17.6L167.94-17.6Q167.94-14.85 166.64-13.65 165.34-12.45 162.19-12.35L162.19-12.35 152.94-12.1Q153.29-4.9 159.19-4.9ZM197.63-17.7L197.63-17.7 197.63-5.15Q197.63-2.45 199.24-1.6L199.24-1.6Q197.44 0.55 194.69 0.55L194.69 0.55Q189.78 0.55 189.78-5.4L189.78-5.4 189.78-16.55Q189.78-18.35 188.91-19.38 188.03-20.4 186.44-20.4 184.84-20.4 183.34-18.93 181.84-17.45 181.19-14.55L181.19-14.55 181.19-5.15Q181.19-2.45 182.84-1.6L182.84-1.6Q180.94 0.55 178.24 0.55L178.24 0.55Q173.34 0.55 173.34-5.4L173.34-5.4 173.34-21.05Q173.34-23.65 171.63-24.55L171.63-24.55Q173.53-26.7 176.09-26.7 178.63-26.7 179.84-25.43 181.03-24.15 181.19-21.5L181.19-21.5Q182.53-24.05 184.91-25.38 187.28-26.7 190.41-26.7 193.53-26.7 195.59-24.4 197.63-22.1 197.63-17.7ZM213.63-21.35L213.23-21.35 213.23-7.85Q213.23-4.7 215.68-4.7L215.68-4.7Q218.38-4.7 220.68-7.15L220.68-7.15Q221.38-7.15 221.86-6.58 222.33-6 222.33-5.05L222.33-5.05Q222.33-3 219.83-1.23 217.33 0.55 213.66 0.55 209.98 0.55 207.68-1.3 205.38-3.15 205.38-6.95L205.38-6.95 205.38-21.35Q203.58-21.4 202.68-22.23 201.78-23.05 201.78-24.3 201.78-25.55 202.83-26.3L202.83-26.3Q204.03-26.15 205.38-26.15L205.38-26.15 205.38-27.65Q205.38-30.25 203.68-31.15L203.68-31.15Q205.58-33.3 208.21-33.3 210.83-33.3 212.03-31.85 213.23-30.4 213.23-27.35L213.23-27.35 213.23-26.15 220.78-26.15Q221.13-25.75 221.13-25.15L221.13-25.15Q221.13-23.6 219.46-22.48 217.78-21.35 213.63-21.35L213.63-21.35ZM256.43-29.95L256.43-29.95Q256.43-27.7 254.83-26.63 253.23-25.55 250.98-25.55 248.73-25.55 247.03-26.6L247.03-26.6Q247.23-27.6 247.23-28.88 247.23-30.15 246.53-31.25L246.53-31.25Q245.43-32.9 242.98-32.9L242.98-32.9Q239.38-32.9 236.83-29.18 234.28-25.45 234.28-18.82 234.28-12.2 237.06-9.35 239.83-6.5 244.73-6.5L244.73-6.5Q247.73-6.5 250.46-7.93 253.18-9.35 254.78-11.3L254.78-11.3Q256.53-10.55 256.53-8.2L256.53-8.2Q256.53-5.15 252.43-2.3 248.33 0.55 242.68 0.55L242.68 0.55Q234.78 0.55 230.41-4.33 226.03-9.2 226.03-18 226.03-26.8 230.78-32.05 235.53-37.3 243.68-37.3L243.68-37.3Q248.93-37.3 252.68-35.18 256.43-33.05 256.43-29.95ZM286.28-36L286.28-36Q288.33-37.3 290.63-37.3 292.93-37.3 294.18-36.1 295.43-34.9 295.43-33.05 295.43-31.2 294.53-29.05L294.53-29.05 284.93-5.8Q283.33-1.95 282.08-0.7 280.83 0.55 278.08 0.55L278.08 0.55Q276.63 0.55 275.75 0.3 274.88 0.05 274.15-0.85 273.43-1.75 273-2.7 272.58-3.65 271.83-5.8L271.83-5.8 262.78-31.3Q261.83-33.95 260.13-34.85L260.13-34.85Q262.48-37.3 265.33-37.3L265.33-37.3Q267.38-37.3 268.73-36.08 270.08-34.85 271.13-31.7L271.13-31.7 278.83-7.65 286.43-29.2Q287.38-32.1 287.38-33.52 287.38-34.95 286.28-36Z" opacity="1" transform="matrix(1,0,0,1,0,0)" fill="#ffffff" class="wordmark-text-0" data-fill-palette-color="primary" id="text-0"></path></svg></g></svg></g></svg></g></svg></g><g></g></svg></g></svg></g></svg></g><g><path d="M79.943 91.106A122.216 122.216 0 0 1 315.577 91.106L311.596 91.106A118.235 118.235 0 0 0 83.924 91.106L79.943 91.106M79.943 156.094A122.216 122.216 0 0 0 315.577 156.094L311.596 156.094A118.235 118.235 0 0 1 83.924 156.094L79.943 156.094" fill="#ffffff" stroke="transparent" data-fill-palette-color="tertiary"></path></g></svg></g><defs></defs></svg><rect width="395.52" height="247.2" fill="none" stroke="none" visibility="hidden"></rect></g></svg></g></svg>